<svg width="32" height="32" viewBox="0 0 32 32" fill="none" xmlns="http://www.w3.org/2000/svg">
<path d="M4.65625 4.75L6.58984 4.75C7.53516 4.75 8.39453 5.30859 8.78125 6.125L26.4414 6.125C27.5586 6.125 28.375 7.19922 28.0742 8.31641L26.3125 14.8477C25.9687 16.2227 24.7227 17.125 23.3477 17.125H10.9297L11.1875 18.3711C11.2734 18.8438 11.7031 19.1875 12.1758 19.1875L24.5937 19.1875C25.1523 19.1875 25.625 19.6602 25.625 20.2188C25.625 20.8203 25.1523 21.25 24.5937 21.25L12.1758 21.25C10.7148 21.25 9.42578 20.2188 9.16797 18.7578L6.93359 7.11328C6.89062 6.94141 6.76172 6.8125 6.58984 6.8125H4.65625C4.05469 6.8125 3.625 6.38281 3.625 5.78125C3.625 5.22266 4.05469 4.75 4.65625 4.75ZM9.25391 8.1875L10.543 15.0625L23.3477 15.0625C23.8203 15.0625 24.207 14.7617 24.3359 14.332L25.9688 8.1875L9.25391 8.1875ZM11.1875 26.75C10.4141 26.75 9.76953 26.3633 9.38281 25.7188C8.99609 25.1172 8.99609 24.3008 9.38281 23.6562C9.76953 23.0547 10.4141 22.625 11.1875 22.625C11.918 22.625 12.5625 23.0547 12.9492 23.6562C13.3359 24.3008 13.3359 25.1172 12.9492 25.7188C12.5625 26.3633 11.918 26.75 11.1875 26.75ZM25.625 24.6875C25.625 25.4609 25.1953 26.1055 24.5937 26.4922C23.9492 26.8789 23.1328 26.8789 22.5312 26.4922C21.8867 26.1055 21.5 25.4609 21.5 24.6875C21.5 23.957 21.8867 23.3125 22.5312 22.9258C23.1328 22.5391 23.9492 22.5391 24.5937 22.9258C25.1953 23.3125 25.625 23.957 25.625 24.6875Z" fill="#101011"/>
</svg>
